<svg width="512" height="512" xmlns="http://www.w3.org/2000/svg">
 <title>ionicons-v5-h</title>

 <g>
  <title>background</title>
  <rect fill="none" id="canvas_background" height="402" width="582" y="-1" x="-1"/>
 </g>
 <g>
  <title>Layer 1</title>
  <line id="svg_1" fill="none" stroke="#999999" stroke-linecap="round" stroke-linejoin="round" stroke-width="32px" y2="480" x2="176" y1="416" x1="176"/>
  <path id="svg_2" fill="none" stroke="#999999" stroke-linecap="round" stroke-linejoin="round" stroke-width="32px" d="m80,32l192,0a32,32 0 0 1 32,32l0,412a4,4 0 0 1 -4,4l-252,0a0,0 0 0 1 0,0l0,-416a32,32 0 0 1 32,-32z"/>
  <path id="svg_3" fill="none" stroke="#999999" stroke-linecap="round" stroke-linejoin="round" stroke-width="32px" d="m320,192l112,0a32,32 0 0 1 32,32l0,256a0,0 0 0 1 0,0l-160,0a0,0 0 0 1 0,0l0,-272a16,16 0 0 1 16,-16z"/>
  <path fill="#999999" id="svg_5" d="m98.08,351.87a16,16 0 1 1 13.79,-13.79a16,16 0 0 1 -13.79,13.79z"/>
  <path fill="#999999" id="svg_6" d="m98.08,271.87a16,16 0 1 1 13.79,-13.79a16,16 0 0 1 -13.79,13.79z"/>
  <path fill="#999999" id="svg_7" d="m98.08,191.87a16,16 0 1 1 13.79,-13.79a16,16 0 0 1 -13.79,13.79z"/>
  <path fill="#999999" id="svg_8" d="m98.08,111.87a16,16 0 1 1 13.79,-13.79a16,16 0 0 1 -13.79,13.79z"/>
  <path fill="#999999" id="svg_9" d="m178.08,351.87a16,16 0 1 1 13.79,-13.79a16,16 0 0 1 -13.79,13.79z"/>
  <path fill="#999999" id="svg_10" d="m178.08,271.87a16,16 0 1 1 13.79,-13.79a16,16 0 0 1 -13.79,13.79z"/>
  <path fill="#999999" id="svg_11" d="m178.08,191.87a16,16 0 1 1 13.79,-13.79a16,16 0 0 1 -13.79,13.79z"/>
  <path fill="#999999" id="svg_12" d="m178.08,111.87a16,16 0 1 1 13.79,-13.79a16,16 0 0 1 -13.79,13.79z"/>
  <path fill="#999999" id="svg_13" d="m258.08,431.87a16,16 0 1 1 13.79,-13.79a16,16 0 0 1 -13.79,13.79z"/>
  <path fill="#999999" id="svg_14" d="m258.08,351.87a16,16 0 1 1 13.79,-13.79a16,16 0 0 1 -13.79,13.79z"/>
  <path fill="#999999" id="svg_15" d="m258.08,271.87a16,16 0 1 1 13.79,-13.79a16,16 0 0 1 -13.79,13.79z"/>
  <ellipse fill="#999999" id="svg_16" transform="rotate(-45 255.52999877929685,176.55999755859372) " ry="16.03" rx="15.95" cy="176.559998" cx="255.529999"/>
  <path fill="#999999" id="svg_17" d="m258.08,111.87a16,16 0 1 1 13.79,-13.79a16,16 0 0 1 -13.79,13.79z"/>
  <path fill="#999999" id="svg_18" d="m413,400a16,16 0 1 0 16,16a16,16 0 0 0 -16,-16z"/>
  <path fill="#999999" id="svg_19" d="m413,320a16,16 0 1 0 16,16a16,16 0 0 0 -16,-16z"/>
  <path fill="#999999" id="svg_20" d="m413,240a16,16 0 1 0 16,16a16,16 0 0 0 -16,-16z"/>
  <path fill="#999999" id="svg_21" d="m349,400a16,16 0 1 0 16,16a16,16 0 0 0 -16,-16z"/>
  <path fill="#999999" id="svg_22" d="m349,320a16,16 0 1 0 16,16a16,16 0 0 0 -16,-16z"/>
  <path fill="#999999" id="svg_23" d="m349,240a16,16 0 1 0 16,16a16,16 0 0 0 -16,-16z"/>
  <path fill="#999999" id="svg_4" d="m98.08,431.87a16,16 0 1 1 13.79,-13.79a16,16 0 0 1 -13.79,13.79z"/>
 </g>
</svg>