<svg width="512" height="512" xmlns="http://www.w3.org/2000/svg">
 <title>ionicons-v5-n</title>

 <g>
  <title>background</title>
  <rect fill="none" id="canvas_background" height="402" width="582" y="-1" x="-1"/>
 </g>
 <g>
  <title>Layer 1</title>
  <path id="svg_1" fill="none" stroke="#0170fe" stroke-linecap="round" stroke-linejoin="round" stroke-width="32px" d="m35.4,87.12l168.65,196.44a16.07,16.07 0 0 1 3.95,10.44l0,119.32a7.93,7.93 0 0 0 5.39,7.59l80.15,26.67a7.94,7.94 0 0 0 10.46,-7.58l0,-146a16.07,16.07 0 0 1 4,-10.44l168.6,-196.44a14,14 0 0 0 -10.6,-23.12l-419.95,0a14,14 0 0 0 -10.65,23.12z"/>
 </g>
</svg>